# Rhino

v 9 10 -18
v 18 10 -18
v 9 10 0
v 18 10 0
v 9 10 0
v 9 40 0
v 9 10 -18
v 9 40 -18
v 18 10 0
v 18 40 0
v 9 10 0
v 9 40 0
v 18 10 -18
v 18 40 -18
v 18 10 0
v 18 40 0
v 9 10 -18
v 9 40 -18
v 18 10 -18
v 18 40 -18
v 9 40 -18
v 18 40 -18
v 9 40 0
v 18 40 0
vt 0 0.1666666716337204
vt 0 0.3318684995174408
vt 0.3318684995174408 0.1666666716337204
vt 0.3318684995174408 0.3318684995174408
vt 0.3333333432674408 0
vt 0.3333333432674408 0.55555558204650879
vt 0.66520184278488159 0
vt 0.66520184278488159 0.55555558204650879
vt 0.83333331346511841 0
vt 0.83333331346511841 0.55555558204650879
vt 0.99853515625 0
vt 0.99853515625 0.55555558204650879
vt 0 0.3333333432674408
vt 0 0.8874240517616272
vt 0.3318684995174408 0.3333333432674408
vt 0.3318684995174408 0.8874240517616272
vt 0.66666668653488159 0
vt 0.66666668653488159 0.55555558204650879
vt 0.83186846971511841 0
vt 0.83186846971511841 0.55555558204650879
vt 0 0
vt 0 0.1652018278837204
vt 0.3318684995174408 0
vt 0.3318684995174408 0.1652018278837204
vn 0 -1 0
vn 0 -1 0
vn 0 -1 0
vn 0 -1 0
vn -1 0 0
vn -1 0 0
vn -1 0 0
vn -1 0 0
vn 0 0 1
vn 0 0 1
vn 0 0 1
vn 0 0 1
vn 1 0 0
vn 1 0 0
vn 1 0 0
vn 1 0 0
vn 0 0 -1
vn 0 0 -1
vn 0 0 -1
vn 0 0 -1
vn 0 1 0
vn 0 1 0
vn 0 1 0
vn 0 1 0
f 2/2/2 4/4/4 3/3/3 1/1/1
f 6/6/6 8/8/8 7/7/7 5/5/5
f 10/10/10 12/12/12 11/11/11 9/9/9
f 14/14/14 16/16/16 15/15/15 13/13/13
f 18/18/18 20/20/20 19/19/19 17/17/17
f 22/22/22 21/21/21 23/23/23 24/24/24
v 81 10 -18
v 90 10 -18
v 81 10 0
v 90 10 0
v 81 10 0
v 81 40 0
v 81 10 -18
v 81 40 -18
v 90 10 0
v 90 40 0
v 81 10 0
v 81 40 0
v 90 10 -18
v 90 40 -18
v 90 10 0
v 90 40 0
v 81 10 -18
v 81 40 -18
v 90 10 -18
v 90 40 -18
v 81 40 -18
v 90 40 -18
v 81 40 0
v 90 40 0
vt 0 0.1666666716337204
vt 0 0.3318684995174408
vt 0.3318684995174408 0.1666666716337204
vt 0.3318684995174408 0.3318684995174408
vt 0.3333333432674408 0
vt 0.3333333432674408 0.55555558204650879
vt 0.66520184278488159 0
vt 0.66520184278488159 0.55555558204650879
vt 0.83333331346511841 0
vt 0.83333331346511841 0.55555558204650879
vt 0.99853515625 0
vt 0.99853515625 0.55555558204650879
vt 0 0.3333333432674408
vt 0 0.8874240517616272
vt 0.3318684995174408 0.3333333432674408
vt 0.3318684995174408 0.8874240517616272
vt 0.66666668653488159 0
vt 0.66666668653488159 0.55555558204650879
vt 0.83186846971511841 0
vt 0.83186846971511841 0.55555558204650879
vt 0 0
vt 0 0.1652018278837204
vt 0.3318684995174408 0
vt 0.3318684995174408 0.1652018278837204
vn 0 -1 0
vn 0 -1 0
vn 0 -1 0
vn 0 -1 0
vn -1 0 0
vn -1 0 0
vn -1 0 0
vn -1 0 0
vn 0 0 1
vn 0 0 1
vn 0 0 1
vn 0 0 1
vn 1 0 0
vn 1 0 0
vn 1 0 0
vn 1 0 0
vn 0 0 -1
vn 0 0 -1
vn 0 0 -1
vn 0 0 -1
vn 0 1 0
vn 0 1 0
vn 0 1 0
vn 0 1 0
f 26/26/26 28/28/28 27/27/27 25/25/25
f 30/30/30 32/32/32 31/31/31 29/29/29
f 34/34/34 36/36/36 35/35/35 33/33/33
f 38/38/38 40/40/40 39/39/39 37/37/37
f 42/42/42 44/44/44 43/43/43 41/41/41
f 46/46/46 45/45/45 47/47/47 48/48/48
v 27 10 -27
v 27 10 -36
v 45 10 -27
v 45 10 -36
v 45 10 -27
v 45 40 -27
v 27 10 -27
v 27 40 -27
v 45 10 -36
v 45 40 -36
v 45 10 -27
v 45 40 -27
v 27 10 -36
v 27 40 -36
v 45 10 -36
v 45 40 -36
v 27 10 -27
v 27 40 -27
v 27 10 -36
v 27 40 -36
v 27 40 -27
v 27 40 -36
v 45 40 -27
v 45 40 -36
vt 0 0.1666666716337204
vt 0 0.3318684995174408
vt 0.3318684995174408 0.1666666716337204
vt 0.3318684995174408 0.3318684995174408
vt 0.3333333432674408 0
vt 0.3333333432674408 0.55555558204650879
vt 0.66520184278488159 0
vt 0.66520184278488159 0.55555558204650879
vt 0.83333331346511841 0
vt 0.83333331346511841 0.55555558204650879
vt 0.99853515625 0
vt 0.99853515625 0.55555558204650879
vt 0 0.3333333432674408
vt 0 0.8874240517616272
vt 0.3318684995174408 0.3333333432674408
vt 0.3318684995174408 0.8874240517616272
vt 0.66666668653488159 0
vt 0.66666668653488159 0.55555558204650879
vt 0.83186846971511841 0
vt 0.83186846971511841 0.55555558204650879
vt 0 0
vt 0 0.1652018278837204
vt 0.3318684995174408 0
vt 0.3318684995174408 0.1652018278837204
vn 0 -1 0
vn 0 -1 0
vn 0 -1 0
vn 0 -1 0
vn 0 0 1
vn 0 0 1
vn 0 0 1
vn 0 0 1
vn 1 0 0
vn 1 0 0
vn 1 0 0
vn 1 0 0
vn 0 0 -1
vn 0 0 -1
vn 0 0 -1
vn 0 0 -1
vn -1 0 0
vn -1 0 0
vn -1 0 0
vn -1 0 0
vn 0 1 0
vn 0 1 0
vn 0 1 0
vn 0 1 0
f 50/50/50 52/52/52 51/51/51 49/49/49
f 54/54/54 56/56/56 55/55/55 53/53/53
f 58/58/58 60/60/60 59/59/59 57/57/57
f 62/62/62 64/64/64 63/63/63 61/61/61
f 66/66/66 68/68/68 67/67/67 65/65/65
f 70/70/70 69/69/69 71/71/71 72/72/72
v 54 10 -27
v 54 10 -36
v 72 10 -27
v 72 10 -36
v 72 10 -27
v 72 40 -27
v 54 10 -27
v 54 40 -27
v 72 10 -36
v 72 40 -36
v 72 10 -27
v 72 40 -27
v 54 10 -36
v 54 40 -36
v 72 10 -36
v 72 40 -36
v 54 10 -27
v 54 40 -27
v 54 10 -36
v 54 40 -36
v 54 40 -27
v 54 40 -36
v 72 40 -27
v 72 40 -36
vt 0 0.1666666716337204
vt 0 0.3318684995174408
vt 0.3318684995174408 0.1666666716337204
vt 0.3318684995174408 0.3318684995174408
vt 0.3333333432674408 0
vt 0.3333333432674408 0.55555558204650879
vt 0.66520184278488159 0
vt 0.66520184278488159 0.55555558204650879
vt 0.83333331346511841 0
vt 0.83333331346511841 0.55555558204650879
vt 0.99853515625 0
vt 0.99853515625 0.55555558204650879
vt 0 0.3333333432674408
vt 0 0.8874240517616272
vt 0.3318684995174408 0.3333333432674408
vt 0.3318684995174408 0.8874240517616272
vt 0.66666668653488159 0
vt 0.66666668653488159 0.55555558204650879
vt 0.83186846971511841 0
vt 0.83186846971511841 0.55555558204650879
vt 0 0
vt 0 0.1652018278837204
vt 0.3318684995174408 0
vt 0.3318684995174408 0.1652018278837204
vn 0 -1 0
vn 0 -1 0
vn 0 -1 0
vn 0 -1 0
vn 0 0 1
vn 0 0 1
vn 0 0 1
vn 0 0 1
vn 1 0 0
vn 1 0 0
vn 1 0 0
vn 1 0 0
vn 0 0 -1
vn 0 0 -1
vn 0 0 -1
vn 0 0 -1
vn -1 0 0
vn -1 0 0
vn -1 0 0
vn -1 0 0
vn 0 1 0
vn 0 1 0
vn 0 1 0
vn 0 1 0
f 74/74/74 76/76/76 75/75/75 73/73/73
f 78/78/78 80/80/80 79/79/79 77/77/77
f 82/82/82 84/84/84 83/83/83 81/81/81
f 86/86/86 88/88/88 87/87/87 85/85/85
f 90/90/90 92/92/92 91/91/91 89/89/89
f 94/94/94 93/93/93 95/95/95 96/96/96
v 80 4 1
v 91 4 1
v 91 4 -18.414213180541992
v 72.414215087890625 4 -37
v 26.585786819458008 4 -37
v 8 4 -18.414213180541992
v 8 4 1
v 19 4 1
v 19 4 -8.5857868194580078
v 36.414215087890625 4 -26
v 62.585784912109375 4 -26
v 80 4 -8.5857868194580078
v 91 4 1
v 91 10 1
v 80 4 1
v 80 10 1
v 91 4 -18.414213180541992
v 91 10 -18.414213180541992
v 91 4 1
v 91 10 1
v 72.414215087890625 4 -37
v 72.414215087890625 10 -37
v 91 4 -18.414213180541992
v 91 10 -18.414213180541992
v 26.585786819458008 4 -37
v 26.585786819458008 10 -37
v 72.414215087890625 4 -37
v 72.414215087890625 10 -37
v 8 4 -18.414213180541992
v 8 10 -18.414213180541992
v 26.585786819458008 4 -37
v 26.585786819458008 10 -37
v 8 4 1
v 8 10 1
v 8 4 -18.414213180541992
v 8 10 -18.414213180541992
v 19 4 1
v 19 10 1
v 8 4 1
v 8 10 1
v 19 4 -8.5857868194580078
v 19 10 -8.5857868194580078
v 19 4 1
v 19 10 1
v 36.414215087890625 4 -26
v 36.414215087890625 10 -26
v 19 4 -8.5857868194580078
v 19 10 -8.5857868194580078
v 62.585784912109375 4 -26
v 62.585784912109375 10 -26
v 36.414215087890625 4 -26
v 36.414215087890625 10 -26
v 80 4 -8.5857868194580078
v 80 10 -8.5857868194580078
v 62.585784912109375 4 -26
v 62.585784912109375 10 -26
v 80 4 1
v 80 10 1
v 80 4 -8.5857868194580078
v 80 10 -8.5857868194580078
v 80 10 1
v 91 10 1
v 91 10 -18.414213180541992
v 72.414215087890625 10 -37
v 26.585786819458008 10 -37
v 8 10 -18.414213180541992
v 8 10 1
v 19 10 1
v 19 10 -8.5857868194580078
v 36.414215087890625 10 -26
v 62.585784912109375 10 -26
v 80 10 -8.5857868194580078
vt 0.92934280633926392 0.67025583982467651
vt 0.92934280633926392 0.77148902416229248
vt 0.75140714645385742 0.77148902416229248
vt 0.58106422424316406 0.60044372081756592
vt 0.58106422424316406 0.17868384718894958
vt 0.75140714645385742 0.0076385056599974632
vt 0.92934280633926392 0.0076385056599974632
vt 0.92934280633926392 0.1088717132806778
vt 0.84148693084716797 0.1088717132806778
vt 0.68188172578811646 0.26913502812385559
vt 0.68188172578811646 0.50999253988265991
vt 0.84148693084716797 0.67025583982467651
vt 0.26895120739936829 0.055218111723661423
vt 0.26895120739936829 0.10897137969732285
vt 0.37018442153930664 0.055218111723661423
vt 0.37018442153930664 0.10897137969732285
vt 0 0.30171099305152893
vt 0 0.35692909359931946
vt 0.17866936326026917 0.30171099305152893
vt 0.17866936326026917 0.35692909359931946
vt 0.16418948769569397 0.38254952430725098
vt 0.11043622344732285 0.38254952430725098
vt 0.16418948769569397 0.62444412708282471
vt 0.11043622344732285 0.62444412708282471
vt 0.21940760314464569 0.38254952430725098
vt 0.16565433144569397 0.38254952430725098
vt 0.21940760314464569 0.80430936813354492
vt 0.16565433144569397 0.80430936813354492
vt 0 0.16565433144569397
vt 0 0.21940760314464569
vt 0.24189463257789612 0.16565433144569397
vt 0.24189463257789612 0.21940760314464569
vt 0 0.22087244689464569
vt 0 0.27609056234359741
vt 0.17866936326026917 0.22087244689464569
vt 0.17866936326026917 0.27609056234359741
vt 0.26895120739936829 0
vt 0.26895120739936829 0.053753267973661423
vt 0.37018442153930664 0
vt 0.37018442153930664 0.053753267973661423
vt 0 0.055218111723661423
vt 0 0.10897137969732285
vt 0.088218167424201965 0.055218111723661423
vt 0.088218167424201965 0.10897137969732285
vt 0.053753267973661423 0.38254952430725098
vt 0 0.38254952430725098
vt 0.053753267973661423 0.60919606685638428
vt 0 0.60919606685638428
vt 0 0.11043622344732285
vt 0 0.16418948769569397
vt 0.24085746705532074 0.11043622344732285
vt 0.24085746705532074 0.16418948769569397
vt 0.10897137969732285 0.38254952430725098
vt 0.055218111723661423 0.38254952430725098
vt 0.10897137969732285 0.60919606685638428
vt 0.055218111723661423 0.60919606685638428
vt 0 0
vt 0 0.053753267973661423
vt 0.088218167424201965 0
vt 0.088218167424201965 0.053753267973661423
vt 0.57263380289077759 0.88986814022064209
vt 0.57263380289077759 0.99091100692749023
vt 0.39469817280769348 0.99091100692749023
vt 0.22435523569583893 0.8201872706413269
vt 0.22435523569583893 0.39922034740447998
vt 0.39469817280769348 0.22849659621715546
vt 0.57263380289077759 0.22849659621715546
vt 0.57263380289077759 0.32953947782516479
vt 0.48477792739868164 0.32953947782516479
vt 0.32517272233963013 0.4895014762878418
vt 0.32517272233963013 0.72990614175796509
vt 0.48477792739868164 0.88986814022064209
vn 0 -1 0
vn 0 -1 0
vn 0 -1 0
vn 0 -1 0
vn 0 -1 0
vn 0 -1 0
vn 0 -1 0
vn 0 -1 0
vn 0 -1 0
vn 0 -1 0
vn 0 -1 0
vn 0 -1 0
vn 0 0 1
vn 0 0 1
vn 0 0 1
vn 0 0 1
vn 1 0 0
vn 1 0 0
vn 1 0 0
vn 1 0 0
vn 0.70710676908493042 0 -0.70710676908493042
vn 0.70710676908493042 0 -0.70710676908493042
vn 0.70710676908493042 0 -0.70710676908493042
vn 0.70710676908493042 0 -0.70710676908493042
vn 0 0 -1
vn 0 0 -1
vn 0 0 -1
vn 0 0 -1
vn -0.70710676908493042 0 -0.70710676908493042
vn -0.70710676908493042 0 -0.70710676908493042
vn -0.70710676908493042 0 -0.70710676908493042
vn -0.70710676908493042 0 -0.70710676908493042
vn -1 0 0
vn -1 0 0
vn -1 0 0
vn -1 0 0
vn 0 0 1
vn 0 0 1
vn 0 0 1
vn 0 0 1
vn 1 0 0
vn 1 0 0
vn 1 0 0
vn 1 0 0
vn 0.70710676908493042 0 0.70710676908493042
vn 0.70710676908493042 0 0.70710676908493042
vn 0.70710676908493042 0 0.70710676908493042
vn 0.70710676908493042 0 0.70710676908493042
vn 0 0 1
vn 0 0 1
vn 0 0 1
vn 0 0 1
vn -0.70710676908493042 0 0.70710676908493042
vn -0.70710676908493042 0 0.70710676908493042
vn -0.70710676908493042 0 0.70710676908493042
vn -0.70710676908493042 0 0.70710676908493042
vn -1 0 0
vn -1 0 0
vn -1 0 0
vn -1 0 0
vn 0 1 0
vn 0 1 0
vn 0 1 0
vn 0 1 0
vn 0 1 0
vn 0 1 0
vn 0 1 0
vn 0 1 0
vn 0 1 0
vn 0 1 0
vn 0 1 0
vn 0 1 0
f 105/105/105 104/104/104 103/103/103
f 102/102/102 105/105/105 103/103/103
f 101/101/101 106/106/106 102/102/102
f 105/105/105 102/102/102 106/106/106
f 100/100/100 106/106/106 101/101/101
f 108/108/108 98/98/98 97/97/97
f 99/99/99 98/98/98 108/108/108
f 100/100/100 99/99/99 107/107/107
f 108/108/108 107/107/107 99/99/99
f 106/106/106 100/100/100 107/107/107
f 110/110/110 112/112/112 111/111/111 109/109/109
f 114/114/114 116/116/116 115/115/115 113/113/113
f 118/118/118 120/120/120 119/119/119 117/117/117
f 122/122/122 124/124/124 123/123/123 121/121/121
f 126/126/126 128/128/128 127/127/127 125/125/125
f 130/130/130 132/132/132 131/131/131 129/129/129
f 134/134/134 136/136/136 135/135/135 133/133/133
f 138/138/138 140/140/140 139/139/139 137/137/137
f 142/142/142 144/144/144 143/143/143 141/141/141
f 146/146/146 148/148/148 147/147/147 145/145/145
f 150/150/150 152/152/152 151/151/151 149/149/149
f 154/154/154 156/156/156 155/155/155 153/153/153
f 165/165/165 163/163/163 164/164/164
f 162/162/162 163/163/163 165/165/165
f 161/161/161 162/162/162 166/166/166
f 165/165/165 166/166/166 162/162/162
f 160/160/160 161/161/161 166/166/166
f 168/168/168 157/157/157 158/158/158
f 159/159/159 168/168/168 158/158/158
f 160/160/160 167/167/167 159/159/159
f 168/168/168 159/159/159 167/167/167
f 166/166/166 167/167/167 160/160/160
